<svg width="8" height="13" viewBox="0 0 8 13" fill="currentColor" xmlns="http://www.w3.org/2000/svg">
<path d="M0.785058 2.21494L5.08506 6.50494L0.785058 10.7949C0.596754 10.9832 0.490967 11.2386 0.490967 11.5049C0.490967 11.7712 0.596754 12.0266 0.785058 12.2149C0.973362 12.4032 1.22876 12.509 1.49506 12.509C1.76136 12.509 2.01675 12.4032 2.20506 12.2149L7.20506 7.21494C7.29879 7.12198 7.37318 7.01138 7.42395 6.88952C7.47472 6.76766 7.50086 6.63695 7.50086 6.50494C7.50086 6.37293 7.47472 6.24222 7.42395 6.12036C7.37318 5.99851 7.29879 5.8879 7.20506 5.79494L2.20506 0.794943C2.11182 0.701704 2.00113 0.627742 1.87931 0.577282C1.75749 0.526822 1.62692 0.500851 1.49506 0.500851C1.3632 0.500851 1.23263 0.526822 1.11081 0.577282C0.988987 0.627742 0.878297 0.701704 0.785059 0.794943C0.69182 0.888181 0.617859 0.998871 0.567399 1.12069C0.516938 1.24252 0.490967 1.37308 0.490967 1.50494C0.490967 1.6368 0.516938 1.76737 0.567399 1.88919C0.617859 2.01101 0.69182 2.1217 0.785058 2.21494Z" fill="white" fill-opacity="0.79"/>
</svg>
