<svg width="15" height="17" viewBox="0 0 15 17" fill="currentColor" xmlns="http://www.w3.org/2000/svg">
<path d="M13.3333 4.33334H10.8333V3.50001C10.8333 2.61595 10.4821 1.7681 9.85694 1.14298C9.23182 0.517861 8.38397 0.166672 7.49992 0.166672C6.61586 0.166672 5.76802 0.517861 5.1429 1.14298C4.51777 1.7681 4.16658 2.61595 4.16658 3.50001V4.33334H1.66659C1.44557 4.33334 1.23361 4.42114 1.07733 4.57742C0.921049 4.7337 0.833252 4.94566 0.833252 5.16667V14.3333C0.833252 14.9964 1.09664 15.6323 1.56549 16.1011C2.03433 16.5699 2.67021 16.8333 3.33325 16.8333H11.6666C12.3296 16.8333 12.9655 16.5699 13.4344 16.1011C13.9032 15.6323 14.1666 14.9964 14.1666 14.3333V5.16667C14.1666 4.94566 14.0788 4.7337 13.9225 4.57742C13.7662 4.42114 13.5543 4.33334 13.3333 4.33334ZM5.83325 3.50001C5.83325 3.05798 6.00885 2.63405 6.32141 2.32149C6.63397 2.00893 7.05789 1.83334 7.49992 1.83334C7.94195 1.83334 8.36587 2.00893 8.67843 2.32149C8.99099 2.63405 9.16658 3.05798 9.16658 3.50001V4.33334H5.83325V3.50001ZM12.4999 14.3333C12.4999 14.5544 12.4121 14.7663 12.2558 14.9226C12.0996 15.0789 11.8876 15.1667 11.6666 15.1667H3.33325C3.11224 15.1667 2.90028 15.0789 2.744 14.9226C2.58772 14.7663 2.49992 14.5544 2.49992 14.3333V6.00001H4.16658V6.83334C4.16658 7.05435 4.25438 7.26631 4.41066 7.42259C4.56694 7.57887 4.7789 7.66667 4.99992 7.66667C5.22093 7.66667 5.43289 7.57887 5.58917 7.42259C5.74545 7.26631 5.83325 7.05435 5.83325 6.83334V6.00001H9.16658V6.83334C9.16658 7.05435 9.25438 7.26631 9.41066 7.42259C9.56694 7.57887 9.7789 7.66667 9.99992 7.66667C10.2209 7.66667 10.4329 7.57887 10.5892 7.42259C10.7455 7.26631 10.8333 7.05435 10.8333 6.83334V6.00001H12.4999V14.3333Z" fill="white"/>
</svg>
